<svg width="32" height="32" viewBox="0 0 32 32" fill="none" xmlns="http://www.w3.org/2000/svg">
  <!-- Background Circle -->
  <circle cx="16" cy="16" r="16" fill="#dc2626"/>
  
  <!-- Letter B -->
  <path d="M8 6h8c2.2 0 4 1.8 4 4 0 1.1-.4 2.1-1.1 2.8.7.7 1.1 1.7 1.1 2.8 0 2.2-1.8 4-4 4H8V6z" fill="white"/>
  <path d="M12 10v3h4c.6 0 1-.4 1-1s-.4-1-1-1h-4z" fill="#dc2626"/>
  <path d="M12 16v3h4c.6 0 1-.4 1-1s-.4-1-1-1h-4z" fill="#dc2626"/>
  
  <!-- Box elements to represent "bulk" -->
  <rect x="20" y="8" width="4" height="4" fill="white" opacity="0.8"/>
  <rect x="20" y="14" width="4" height="4" fill="white" opacity="0.6"/>
  <rect x="20" y="20" width="4" height="4" fill="white" opacity="0.4"/>
</svg>